<svg version="1.1" xmlns="http://www.w3.org/2000/svg" xmlns:xlink="http://www.w3.org/1999/xlink" width="335.84047" height="274.37125" viewBox="0,0,335.84047,274.37125"><g transform="translate(-146,-86)"><g data-paper-data="{&quot;isPaintingLayer&quot;:true}" fill-rule="nonzero" stroke-linecap="butt" stroke-linejoin="miter" stroke-miterlimit="10" stroke-dasharray="" stroke-dashoffset="0" style="mix-blend-mode: normal"><path d="M151.42857,243c-2.44583,0 -4.42857,-1.41098 -4.42857,-3.15151v-149.69697c0,-1.74053 1.98274,-3.15152 4.42857,-3.15152h177.14286c2.44583,0 4.42857,1.41098 4.42857,3.15152v149.69697c0,1.74053 -1.98274,3.15151 -4.42857,3.15151z" fill="#9966ff" stroke="#000000" stroke-width="2"/><text transform="translate(156,126) scale(0.69339,0.69339)" font-size="40" xml:space="preserve" fill="#000000" fill-rule="nonzero" stroke="none" stroke-width="1" stroke-linecap="butt" stroke-linejoin="miter" stroke-miterlimit="10" stroke-dasharray="" stroke-dashoffset="0" font-family="Sans Serif" font-weight="normal" text-anchor="start" style="mix-blend-mode: normal"><tspan x="0" dy="0">How to</tspan><tspan x="0" dy="46.15px">make your</tspan><tspan x="0" dy="46.15px">own app</tspan></text><text transform="translate(177.30003,224.26908) scale(0.42251,0.42251)" font-size="40" xml:space="preserve" fill="#000000" fill-rule="nonzero" stroke="none" stroke-width="1" stroke-linecap="butt" stroke-linejoin="miter" stroke-miterlimit="10" stroke-dasharray="" stroke-dashoffset="0" font-family="Sans Serif" font-weight="normal" text-anchor="start" style="mix-blend-mode: normal"><tspan x="0" dy="0">First, click here.</tspan></text><path d="M320.45186,219.39443l41.39615,43.788l5.81429,-11.1709l7.41011,36.70682l-26.79108,0.52951l5.81429,-11.1709l-41.39615,-43.78801z" fill="#ff0000" stroke="none" stroke-width="0"/><path d="M479.34047,305.24786c0,29.0631 -37.30385,52.62339 -83.3205,52.62339c-46.01664,0 -83.32051,-23.56029 -83.32051,-52.62339c0,-29.0631 37.30385,-52.62339 83.32051,-52.62339c46.01664,0 83.3205,23.56029 83.3205,52.62339z" fill="none" stroke="#ff0000" stroke-width="5"/></g></g></svg>